HIERARCHY
ROOT Hips
{
    OFFSET 0.000000 0.000000 0.000000
    CHANNELS 6 Xposition Yposition Zposition Zrotation Xrotation Yrotation
    JOINT Spine
    {
        OFFSET -0.000000 14.517291 0.000000
        CHANNELS 3 Zrotation Xrotation Yrotation
        JOINT Spine1
        {
            OFFSET -0.000000 37.558300 0.000000
            CHANNELS 3 Zrotation Xrotation Yrotation
            JOINT Neck
            {
                OFFSET -0.000000 37.404057 3.400369
                CHANNELS 3 Zrotation Xrotation Yrotation
                JOINT Head
                {
                    OFFSET -0.000000 24.785618 -3.540803
                    CHANNELS 3 Zrotation Xrotation Yrotation
                    End Site
                    {
                        OFFSET -0.000000 35.408028 0.000000
                    }
                }
            }
            JOINT LeftShoulder
            {
                OFFSET 6.992933 33.973492 -0.192664
                CHANNELS 3 Zrotation Xrotation Yrotation
                JOINT LeftArm
                {
                    OFFSET 21.527611 0.000000 0.000000
                    CHANNELS 3 Zrotation Xrotation Yrotation
                    JOINT LeftForeArm
                    {
                        OFFSET 56.353916 0.000000 0.000000
                        CHANNELS 3 Zrotation Xrotation Yrotation
                        JOINT LeftHand
                        {
                            OFFSET 47.774071 0.000000 0.000000
                            CHANNELS 3 Zrotation Xrotation Yrotation
                            End Site
                            {
                                OFFSET 26.556021 0.000000 0.000000
                            }
                        }
                    }
                }
            }
            JOINT RightShoulder
            {
                OFFSET -7.065357 33.973492 -0.192664
                CHANNELS 3 Zrotation Xrotation Yrotation
                JOINT RightArm
                {
                    OFFSET -21.527611 0.000000 0.000000
                    CHANNELS 3 Zrotation Xrotation Yrotation
                    JOINT RightForeArm
                    {
                        OFFSET -56.353916 0.000000 0.000000
                        CHANNELS 3 Zrotation Xrotation Yrotation
                        JOINT RightHand
                        {
                            OFFSET -47.774071 0.000000 0.000000
                            CHANNELS 3 Zrotation Xrotation Yrotation
                            End Site
                            {
                                OFFSET -26.556021 0.000000 0.000000
                            }
                        }
                    }
                }
            }
        }
    }
    JOINT LeftUpLeg
    {
        OFFSET 17.704014 0.000000 0.000000
        CHANNELS 3 Zrotation Xrotation Yrotation
        JOINT LeftLeg
        {
            OFFSET -0.000000 -81.181816 0.000000
            CHANNELS 3 Zrotation Xrotation Yrotation
            JOINT LeftFoot
            {
                OFFSET -0.000000 -62.821102 0.000000
                CHANNELS 3 Zrotation Xrotation Yrotation
                JOINT LeftToeBase
                {
                    OFFSET -0.000000 -11.507608 26.556021
                    CHANNELS 3 Zrotation Xrotation Yrotation
                    End Site
                    {
                        OFFSET -0.000000 0.000000 7.081605
                    }
                }
            }
        }
    }
    JOINT RightUpLeg
    {
        OFFSET -17.704014 0.000000 0.000000
        CHANNELS 3 Zrotation Xrotation Yrotation
        JOINT RightLeg
        {
            OFFSET -0.000000 -81.181816 0.000000
            CHANNELS 3 Zrotation Xrotation Yrotation
            JOINT RightFoot
            {
                OFFSET -0.000000 -62.821102 0.000000
                CHANNELS 3 Zrotation Xrotation Yrotation
                JOINT RightToeBase
                {
                    OFFSET -0.000000 -11.507608 26.556021
                    CHANNELS 3 Zrotation Xrotation Yrotation
                    End Site
                    {
                        OFFSET -0.000000 0.000000 7.081605
                    }
                }
            }
        }
    }
}
MOTION
Frames:    10
Frame Time:    0.008333
2.089053    156.122238    -31.535984    -0.482142    -3.314181    -26.702581    2.408046    -0.937702    2.082141    -1.030560    0.365249    0.690139    11.536944    0.513947    10.536258    -4.291045    2.835301    8.796903    -0.217470    8.240699    -11.091437    -35.837200    17.749987    -47.477558    28.971939    -43.790840    -50.405666    -28.636934    -25.864788    -30.598883    -4.276088    6.809856    -3.058891    38.583233    13.196518    72.361130    2.324826    -12.745584    101.776398    6.128879    -14.845260    12.958780    14.354420    -19.308086    -1.727264    -13.015623    18.473589    6.465911    -5.637619    3.801951    22.516882    0.000000    0.000000    0.000000    -11.111591    7.154308    -3.902190    7.726328    25.034952    0.966940    2.025284    -25.040411    -21.369520    0.000000    0.000000    0.000000    
2.070140    156.117752    -31.535879    -0.484083    -3.316924    -26.692944    2.407653    -0.921865    2.081223    -1.032129    0.361487    0.689881    11.533924    0.518093    10.536486    -4.288442    2.822273    8.797814    -0.230740    8.240906    -11.039433    -35.916752    17.626284    -47.398277    29.410841    -43.934673    -49.970478    -28.685635    -25.944380    -30.650482    -4.284656    6.818305    -3.042171    38.573605    13.168123    72.354538    2.325504    -12.758253    101.771454    6.118238    -14.859732    12.950376    14.360659    -19.310123    -1.736452    -13.032432    18.502344    6.468988    -5.610830    3.770270    22.511662    0.000000    0.000000    0.000000    -11.105402    7.155678    -3.898169    7.741160    25.046894    0.924051    2.015297    -25.044621    -21.353897    0.000000    0.000000    0.000000    
2.049464    156.112411    -31.536680    -0.481406    -3.321093    -26.684166    2.398846    -0.898172    2.089037    -1.027401    0.341875    0.692527    11.510918    0.534557    10.533166    -4.267365    2.794905    8.800853    -0.256473    8.236594    -11.002127    -35.981140    17.514414    -47.321270    29.837275    -44.089279    -49.533249    -28.717739    -26.039972    -30.748571    -4.299052    6.825464    -3.031557    38.597504    13.138809    72.338730    2.334588    -12.733468    101.761543    6.082687    -14.848924    12.961533    14.363464    -19.313629    -1.719548    -13.025032    18.517586    6.440522    -5.618087    3.774688    22.502903    0.000000    0.000000    0.000000    -11.101342    7.149500    -3.907133    7.735996    25.081017    0.940830    2.016711    -25.062414    -21.363697    0.000000    0.000000    0.000000    
2.031448    156.102417    -31.540676    -0.476990    -3.320596    -26.672335    2.402029    -0.889578    2.093277    -1.038362    0.342733    0.693959    11.488389    0.533365    10.528858    -4.242409    2.783653    8.802011    -0.276529    8.219544    -10.969010    -36.041737    17.400923    -47.228394    30.283161    -44.188629    -49.101112    -28.715702    -26.086218    -30.775291    -4.312419    6.836142    -3.013037    38.604446    13.110596    72.336609    2.333295    -12.741741    101.751411    6.052615    -14.858405    12.961174    14.364038    -19.326111    -1.720165    -13.020542    18.536072    6.434487    -5.617168    3.771058    22.484350    0.000000    0.000000    0.000000    -11.104183    7.140161    -3.931991    7.753050    25.110733    0.938061    2.006418    -25.082191    -21.369968    0.000000    0.000000    0.000000    
2.015887    156.093094    -31.542278    -0.469330    -3.321078    -26.663500    2.404039    -0.870454    2.105047    -1.055871    0.334080    0.698083    11.470975    0.528244    10.521606    -4.215178    2.765954    8.799003    -0.293451    8.212408    -10.926523    -36.081383    17.316502    -47.169971    30.752636    -44.338089    -48.639816    -28.838266    -26.152533    -30.847679    -4.323276    6.826714    -3.012404    38.615372    13.110110    72.320641    2.335094    -12.755583    101.751068    6.059013    -14.873174    12.968116    14.399307    -19.341801    -1.815493    -13.136126    18.515940    6.518810    -5.589353    3.796560    22.533138    0.000000    0.000000    0.000000    -11.108924    7.128390    -3.979459    7.742783    25.151251    0.976658    1.993250    -25.102974    -21.375006    0.000000    0.000000    0.000000    
1.999950    156.086121    -31.543320    -0.463496    -3.319824    -26.649782    2.406623    -0.868423    2.117207    -1.070071    0.337452    0.702181    11.464636    0.518879    10.511905    -4.202122    2.777715    8.790834    -0.309162    8.202372    -10.900961    -36.115398    17.240627    -47.098728    31.208052    -44.486233    -48.186295    -28.942524    -26.218502    -30.964603    -4.333314    6.843245    -3.008147    38.616459    13.093241    72.322296    2.317014    -12.777592    101.734619    6.051029    -14.874784    12.945284    14.358671    -19.349176    -1.689193    -13.015096    18.571554    6.419919    -5.634328    3.747841    22.488234    0.000000    0.000000    0.000000    -11.112070    7.122092    -3.993638    7.753361    25.170469    0.932566    1.994363    -25.112270    -21.329111    0.000000    0.000000    0.000000    
1.983894    156.079346    -31.543545    -0.461165    -3.314471    -26.639027    2.412667    -0.865366    2.130895    -1.080021    0.337142    0.706730    11.434661    0.523748    10.501062    -4.160785    2.762844    8.788707    -0.330726    8.199686    -10.868010    -36.150082    17.137934    -47.029446    31.559931    -44.604824    -47.827946    -28.983021    -26.298294    -31.022655    -4.335315    6.858630    -2.997492    38.613724    13.067504    72.318169    2.293830    -12.786918    101.715378    6.027833    -14.858573    12.935061    14.364720    -19.356478    -1.678181    -13.013638    18.573429    6.398812    -5.635861    3.748149    22.481251    0.000000    0.000000    0.000000    -11.111848    7.106517    -4.030676    7.754730    25.212561    0.964230    1.997795    -25.128345    -21.336594    0.000000    0.000000    0.000000    
1.969791    156.074738    -31.541773    -0.452009    -3.311860    -26.629696    2.424230    -0.862965    2.148187    -1.112234    0.341538    0.712649    11.408586    0.501422    10.497019    -4.104219    2.777798    8.793198    -0.364528    8.147034    -10.871511    -36.207005    17.039238    -46.878872    31.894407    -44.720207    -47.519806    -29.057787    -26.361383    -31.071453    -4.332592    6.846127    -3.000717    38.611088    13.073811    72.310036    2.281856    -12.797111    101.702347    6.007713    -14.857456    12.910669    14.359685    -19.365976    -1.667115    -13.006856    18.582008    6.390036    -5.626812    3.753255    22.464302    0.000000    0.000000    0.000000    -11.117185    7.090794    -4.071133    7.748682    25.248438    0.944676    2.025513    -25.148199    -21.289217    0.000000    0.000000    0.000000    
1.954337    156.068558    -31.545835    -0.441697    -3.300426    -26.624374    2.428818    -0.868466    2.167439    -1.131083    0.339643    0.719007    11.403722    0.497662    10.486348    -4.094768    2.791991    8.784006    -0.389425    8.142157    -10.840830    -36.235935    16.927732    -46.806767    32.257126    -44.763401    -47.162010    -28.718763    -26.466759    -31.049173    -4.335129    6.852035    -2.991425    38.615112    13.066133    72.300186    2.280789    -12.804223    101.690147    6.006361    -14.863904    12.894410    14.365131    -19.380007    -1.660244    -13.017185    18.578791    6.389070    -5.628630    3.744054    22.476229    0.000000    0.000000    0.000000    -11.120948    7.060111    -4.093462    7.753462    25.292627    0.944149    2.004767    -25.153200    -21.277714    0.000000    0.000000    0.000000    
1.942651    156.066010    -31.546721    -0.433480    -3.295679    -26.617128    2.421757    -0.861598    2.189927    -1.126883    0.326971    0.726492    11.396885    0.484053    10.480528    -4.089575    2.825151    8.779350    -0.428318    8.129731    -10.826468    -36.288757    16.817009    -46.713158    32.525536    -44.870037    -46.876862    -28.771032    -26.541349    -31.131330    -4.338152    6.850307    -2.998625    38.599770    13.079422    72.296066    2.258051    -12.823527    101.667877    5.990071    -14.857813    12.876649    14.363464    -19.385540    -1.644354    -13.010818    18.575794    6.390065    -5.626253    3.751589    22.448462    0.000000    0.000000    0.000000    -11.125995    7.035735    -4.123224    7.749722    25.341377    0.984887    2.015732    -25.169321    -21.303680    0.000000    0.000000    0.000000    
